<?xml version="1.0" standalone="no"?><!DOCTYPE svg PUBLIC "-//W3C//DTD SVG 1.1//EN" "http://www.w3.org/Graphics/SVG/1.1/DTD/svg11.dtd"><svg t="1715733227512" class="icon" viewBox="0 0 1024 1024" version="1.1" xmlns="http://www.w3.org/2000/svg" p-id="1454" xmlns:xlink="http://www.w3.org/1999/xlink" width="200" height="200"><path d="M443.7 972.5c-11.52 0-23.03-4.39-31.82-13.18L25.92 573.36C9.53 556.97 0.5 535.18 0.5 512s9.03-44.97 25.42-61.36L411.88 64.68c17.57-17.57 46.07-17.57 63.64 0s17.57 46.07 0 63.64L91.84 512l383.68 383.68c17.57 17.57 17.57 46.07 0 63.64-8.79 8.79-20.31 13.18-31.82 13.18z" fill="#1afa29" p-id="1455"></path><path d="M979 557H46c-24.85 0-45-20.15-45-45s20.15-45 45-45h933c24.85 0 45 20.15 45 45s-20.15 45-45 45z" fill="#1afa29" p-id="1456"></path></svg>